<?xml version="1.0" encoding="utf-8"?>
<!-- Generator: Adobe Illustrator 28.3.0, SVG Export Plug-In . SVG Version: 6.00 Build 0)  -->
<svg version="1.1" id="Laag_1" xmlns="http://www.w3.org/2000/svg" xmlns:xlink="http://www.w3.org/1999/xlink" x="0px" y="0px"
	 viewBox="0 0 563.9 670.7" style="enable-background:new 0 0 563.9 670.7;" xml:space="preserve">
<style type="text/css">
	.st0{fill:#F2F2F2;stroke:#000000;stroke-miterlimit:10;}
</style>
<path class="st0" d="M34.1,221.7c0,0-32.5,174.4-33.6,183c-1.1,8.7,61.7,16.2,61.7,16.2s2.2,47.6,8.7,47.6s54.1-6.5,54.1-6.5
	l27.1,78l-11.9,16.2l-4.3,5l0.5,35.6l-4.2,14.1v32.4l35.2,2.3c0,0,8-3.8,14.1-2.3c6.1,1.4,6.1,6.6,6.1,6.6s-16.4,22-4.7,20.2
	c11.7-1.9,92.8-31.4,92.8-31.4s22-7.5,28.1-11.7c6.1-4.2,21.6-8.9,24.9-8.9s23-8,28.1-8c5.2,0,15-11.3,17.3-10.8s14.1,9.4,17.8,4.7
	c3.8-4.7,11.3-11.3,19.7-16.9c8.4-5.6,9.4-9.8,10.8-9.8c1.4,0,27.2,2.8,25.3-5.6c-1.9-8.4-21.1-16.4-23.4-20.6
	c-2.3-4.2,1.9-30-15.5-41.3c-17.3-11.3,0.5-21.6-10.3-31.9c-10.8-10.3-28.6-49.2-14.1-71.3c0,0,3.3-15.9,8-29.5
	c4.7-13.6,42.9-98,34.1-107.4c0,0-1.3-2.8,9.7-9.4c11-6.6,7.4-25.5,11.6-31c4.3-5.5,5.1-18.1,3.4-18.1c0,0,17-26.3,25.8-43.5
	c0,0,42.8,5.2,53.7-3.1c11-8.3,16.7,3.1,16.7,3.1l15.6-22.4l-12-4.7l-5.7,7.3l-6.8-50.1h-7.3l-4.2-13h-7.3l15.1,50.6l-9.9,1
	l-42.2-8.3l3.7-28.2l16.2-10.4l-14.1-15.1l-13,11.5l-8.3-11.5l-4.7,4.2l-25-32.3l34.9-31.3l43.3,54.2l4.7-3.1L470.3,0.7l-36.5,35.5
	c0,0-28.6,32.9-40.1,32.9s-39.9-4.3-39.9-4.3V49.4c0,0-54.5,52.9-69.1,43.4s-58.5-51.7-71.1-40.3c-12.6,11.5,0,68.7,9.1,69.5
	c9.1,0.8,3.9,27.3,3.9,27.3H88.5v66l-52.9,0.4L34.1,221.7z"/>
</svg>
